<?xml version="1.0" encoding="utf-8"?>
<!-- Generator: Adobe Illustrator 24.1.2, SVG Export Plug-In . SVG Version: 6.00 Build 0)  -->
<svg version="1.1"
	 id="svg4009" xmlns:cc="http://creativecommons.org/ns#" xmlns:dc="http://purl.org/dc/elements/1.1/" xmlns:rdf="http://www.w3.org/1999/02/22-rdf-syntax-ns#" xmlns:svg="http://www.w3.org/2000/svg"
	 xmlns="http://www.w3.org/2000/svg" xmlns:xlink="http://www.w3.org/1999/xlink" x="0px" y="0px" viewBox="0 0 250 160"
	 style="enable-background:new 0 0 250 160;" xml:space="preserve">
<style type="text/css">
	.st0{fill:none;}
	.st1{fill:#FFFFFF;stroke:#FFFFFF;stroke-width:4.1775;stroke-miterlimit:10;}
</style>
<path class="st0" d="M185,30c0,0,0.9,0,2,0"/>
<path class="st0" d="M186,147c0,0,0.4,0,1,0"/>
<g>
	<g transform="translate(0.000000,511.000000) scale(0.100000,-0.100000)">
		<path class="st1" d="M758.8,5066.7c-29.7-16.1-55-50.7-55-76.8c0-30,25.3-68.4,54.1-84.5c27.1-14.6,43.7-15.4,332.6-15.4h302.9
			v-53.8v-53.8H1321c-96,0-102.1-5.4-102.1-90.7v-63H713.4c-448.7,0-507.2-1.5-519.4-12.3c-10.5-9.2-14-28.4-14-82.2
			c0-39.2,4.4-76.1,8.7-82.2c6.1-8.5,29.7-12.3,84.7-15.4l76.8-3.8l2.6-448.8c0.9-315.9,4.4-451.9,11.4-459.6
			c14.8-15.4,1729.3-15.4,1744.2,0c7,7.7,10.5,143.7,11.4,459.6l2.6,448.8l76.8,3.8c55,3.1,78.6,6.9,84.7,15.4
			c4.4,6.2,8.7,43,8.7,82.2c0,53.8-3.5,73-14,82.2c-11.4,10.8-47.1,12.3-253.2,12.3h-239.2v63.8c0,84.5-6.1,89.9-103,89.9h-71.6
			v53.8v53.8h303.8c285.5,0,304.7,0.8,330.9,15.4c71.6,38.4,71.6,123,0,161.4c-27.1,14.6-48.9,15.4-743.8,15.4
			C807.7,5082.1,785.9,5081.3,758.8,5066.7z M2216.7,5035.2c10.5-5.4,21.8-13.1,25.3-17.7c11.3-15.4,7-53-7.9-67.6
			c-13.1-13.1-47.1-13.8-729.8-13.8c-653.8,0-717.6,0.8-732.4,13.1c-24.4,19.2-20.9,59.2,7,78.4c23.6,16.1,28.8,16.1,721.1,16.1
			C2008.9,5043.7,2202.7,5041.3,2216.7,5035.2z M1566.3,4834.6l2.6-52.3h-62h-61.1v53.8v54.6l59.4-2.3l58.5-2.3L1566.3,4834.6z
			 M1733.9,4682.4v-53.8h-231.3h-231.3v53.8v53.8h231.3h231.3V4682.4z M2240.2,4534.9v-52.3h-64.6c-111.7,0-101.3,47.7-103.9-476.5
			l-1.8-449.6h-833.7H402.6l-1.8,449.6c-2.6,524.2,7.9,476.5-103.9,476.5h-64.6v53.8v53l1003.9-1.5l1003.9-1.5L2240.2,4534.9
			L2240.2,4534.9z"/>
		<path class="st1" d="M546.7,4313.5c-16.6-14.6-17.5-25.4-17.5-311.3c0-285.9,0.9-296.7,17.5-311.3c17.5-15.4,28.8-15.4,698.4-15.4
			s680.9,0,698.4,15.4c16.6,14.6,17.5,25.4,17.5,311.3c0,285.9-0.9,296.7-17.5,311.3c-17.5,15.4-28.8,15.4-698.4,15.4
			S564.1,4328.9,546.7,4313.5z M1908.5,4002.3v-280.5H1245H581.6v280.5v280.5H1245h663.5V4002.3z"/>
	</g>
</g>
</svg>
